<svg xmlns="http://www.w3.org/2000/svg" viewBox="0 0 772.22 173.55"><defs><style>.cls-1{fill:#96c61b;}.cls-1,.cls-2,.cls-3{fill-rule:evenodd;}.cls-2{fill:#00aedd;}.cls-3{fill:#5c4d9d;}.cls-4{fill:#7e7c7c;}</style></defs><g id="Layer_2" data-name="Layer 2"><g id="Layer_1-2" data-name="Layer 1"><polygon class="cls-1" points="0 93.11 87.45 0 123.99 44.04 0 93.11"/><polygon class="cls-2" points="79.88 173.55 4.21 101.78 50.55 84.4 79.88 173.55"/><polygon class="cls-3" points="84.37 172.95 163.51 120.19 134.4 69.04 84.37 172.95"/><path class="cls-4" d="M734.3,110.9q0,10.34,15,10.35h.17q14.72,0,14.73-10V100.62a60.81,60.81,0,0,0-9.85-.65q-20.1,0-20.09,10.93m-8,0a15.51,15.51,0,0,1,1.38-6.67,15.18,15.18,0,0,1,3.38-4.81,17.58,17.58,0,0,1,5.09-3.14,39.35,39.35,0,0,1,5.49-1.92,35.74,35.74,0,0,1,5.65-.93c2.18-.22,3.73-.35,4.66-.38s2-.06,3.27-.06l8.89.53q0-7.53-4.09-10.75c-2.71-2.14-6.76-3.22-12.1-3.22a46.32,46.32,0,0,0-16.19,2.67V74.45a49.75,49.75,0,0,1,16.63-2.88q11.61,0,17.73,5.88t6.11,17.2v16.64a16.13,16.13,0,0,1-2.46,9.07,14.35,14.35,0,0,1-6.32,5.45,36.14,36.14,0,0,1-7.24,2.33,36.6,36.6,0,0,1-6.69.65,41,41,0,0,1-5.23-.34,29,29,0,0,1-6.06-1.47,23,23,0,0,1-5.88-3,14.82,14.82,0,0,1-4.27-5.23A16.94,16.94,0,0,1,726.32,110.9Zm-13.76,17h8V72.57h-8Zm-.42-65.09V53.94H721v8.87ZM664.7,99.53a38.71,38.71,0,0,0,1.51,11.7q1.53,4.71,4.16,6.76a15.94,15.94,0,0,0,5.08,2.78,20.61,20.61,0,0,0,5.58.7q14.73,0,14.72-9.76V81.77A36,36,0,0,0,682,79q-9.09,0-13.21,4.88T664.7,99.53Zm-8,0a39.14,39.14,0,0,1,2.22-14,18.7,18.7,0,0,1,6.16-8.65,25.66,25.66,0,0,1,8-4A32.68,32.68,0,0,1,682,71.68a43.78,43.78,0,0,1,13.74,2.11V51.5h8v59.9a17,17,0,0,1-.65,4.54,21.52,21.52,0,0,1-2.72,5.57q-2,3.21-7,5.24a32.69,32.69,0,0,1-12.29,2,34.61,34.61,0,0,1-6-.54,21.88,21.88,0,0,1-6.39-2.44,20.76,20.76,0,0,1-5.94-4.93,25.72,25.72,0,0,1-4.21-8.54A42.5,42.5,0,0,1,656.71,99.53ZM613,97.85h32.49a21.1,21.1,0,0,0-.47-4.23,39.3,39.3,0,0,0-1.84-6,12.84,12.84,0,0,0-5-6.1,15.65,15.65,0,0,0-8.95-2.44c-5.5,0-9.5,1.42-12,4.29S613.32,91.07,613,97.85Zm-8,3.09v-.82q0-28.54,24.23-28.55a25.61,25.61,0,0,1,9.19,1.59,21.87,21.87,0,0,1,6.54,3.77,19.9,19.9,0,0,1,4.25,5.67,39.06,39.06,0,0,1,2.61,5.93,35.09,35.09,0,0,1,1.22,5.9c.27,2.24.42,3.66.42,4.23v2.39l-.2,3.9H613c.5,5.56,2.21,9.59,5.1,12.08s7.19,3.77,12.88,3.77c8,0,14.34-1.36,18.94-4.12v8.24q-8,3.85-19.36,3.87h-.34a32.07,32.07,0,0,1-8.91-1.17,25.36,25.36,0,0,1-8-4,18.68,18.68,0,0,1-6.12-8.65A39.09,39.09,0,0,1,605,100.94Zm-75.57,27v-74H538l25.41,37.57L589,53.94h8.63v74h-8V67l-26.16,37.68L537.38,67V127.9ZM471.2,72.57h14.14l12.39,38.53,12.18-38.53h13.31l-20.29,56.7q-4.44,12.07-9.63,16.28a17,17,0,0,1-10.78,4.19,24.87,24.87,0,0,1-8.4-1.53V137a15.94,15.94,0,0,0,6.28,1.35q5.75,0,10.66-13.4Zm-55.19,0H430.2l13.86,42,13.86-42h14.29L451.05,127.9H437.19ZM381.12,86.39Q378,90,378,100.31c0,6.87,1.06,11.51,3.17,13.89s5.35,3.61,9.72,3.61,7.61-1.2,9.7-3.61,3.14-7,3.14-13.89-1.05-11.5-3.14-13.92-5.32-3.62-9.7-3.62S383.24,84,381.12,86.39Zm-9.71,35q-6.75-7.39-6.76-21.12t6.76-21.12q6.76-7.38,19.41-7.38t19.4,7.38Q417,86.57,417,100.29t-6.77,21.12q-6.77,7.38-19.4,7.38T371.41,121.41Zm-45-35q-3.17,3.63-3.16,13.92c0,6.87,1.05,11.51,3.16,13.89s5.36,3.61,9.72,3.61,7.61-1.2,9.7-3.61,3.14-7,3.14-13.89-1.05-11.5-3.14-13.92-5.32-3.62-9.7-3.62S328.55,84,326.43,86.39Zm-9.7,35Q310,114,310,100.29t6.77-21.12q6.76-7.38,19.4-7.38t19.41,7.38q6.76,7.39,6.76,21.12t-6.76,21.12q-6.77,7.38-19.41,7.38T316.73,121.41Zm-34.62,6.49V77.47c.9-.43,2.14-.93,3.73-1.52a92,92,0,0,1,9.59-2.53,69.58,69.58,0,0,1,14.29-1.74V83.1A53.88,53.88,0,0,0,295.42,85v43ZM212.6,91a54.4,54.4,0,0,1,2.11-16,32.36,32.36,0,0,1,5.45-11,27,27,0,0,1,8-6.65,31.52,31.52,0,0,1,9.2-3.44,51.81,51.81,0,0,1,9.69-.87,70,70,0,0,1,25.2,5V70.29A61.1,61.1,0,0,0,248.4,65a44,44,0,0,0-6.9.48,19.53,19.53,0,0,0-6,2.11A14.65,14.65,0,0,0,230.45,72a22.94,22.94,0,0,0-3.27,7.56,44.26,44.26,0,0,0-1.27,11.3,44.87,44.87,0,0,0,1.27,11.44,22.76,22.76,0,0,0,3.27,7.56,14.71,14.71,0,0,0,5.05,4.38,19.65,19.65,0,0,0,6,2.11,45.07,45.07,0,0,0,6.86.48,50.4,50.4,0,0,0,13.1-1.89V97.29H245.2V85.54h29.61v36.91a61.17,61.17,0,0,1-26.93,6.34h-.2a53.71,53.71,0,0,1-9.87-.87,32.53,32.53,0,0,1-9.35-3.44,27.36,27.36,0,0,1-8.17-6.62,31.18,31.18,0,0,1-5.55-11A54.26,54.26,0,0,1,212.6,91Z"/></g></g></svg>